<svg width="17" height="17" viewBox="0 0 17 17" fill="none" xmlns="http://www.w3.org/2000/svg">
<g clip-path="url(#clip0_1613_943)">
<path d="M8.50033 12.5726C8.64122 12.5726 8.77635 12.5166 8.87598 12.417C8.9756 12.3174 9.03158 12.1822 9.03158 12.0413V7.79134C9.03158 7.65044 8.9756 7.51532 8.87598 7.41569C8.77635 7.31606 8.64122 7.26009 8.50033 7.26009C8.35943 7.26009 8.2243 7.31606 8.12468 7.41569C8.02505 7.51532 7.96908 7.65044 7.96908 7.79134V12.0413C7.96908 12.3346 8.20708 12.5726 8.50033 12.5726ZM8.50033 4.95801C8.68819 4.95801 8.86835 5.03264 9.00119 5.16547C9.13403 5.29831 9.20866 5.47848 9.20866 5.66634C9.20866 5.8542 9.13403 6.03437 9.00119 6.16721C8.86835 6.30005 8.68819 6.37467 8.50033 6.37467C8.31246 6.37467 8.1323 6.30005 7.99946 6.16721C7.86662 6.03437 7.79199 5.8542 7.79199 5.66634C7.79199 5.47848 7.86662 5.29831 7.99946 5.16547C8.1323 5.03264 8.31246 4.95801 8.50033 4.95801Z" fill="black"/>
<path fill-rule="evenodd" clip-rule="evenodd" d="M0.885742 8.50033C0.885742 4.29495 4.29495 0.885742 8.50033 0.885742C12.7057 0.885742 16.1149 4.29495 16.1149 8.50033C16.1149 12.7057 12.7057 16.1149 8.50033 16.1149C4.29495 16.1149 0.885742 12.7057 0.885742 8.50033ZM8.50033 1.94824C6.7626 1.94824 5.09606 2.63855 3.8673 3.8673C2.63855 5.09606 1.94824 6.7626 1.94824 8.50033C1.94824 10.238 2.63855 11.9046 3.8673 13.1333C5.09606 14.3621 6.7626 15.0524 8.50033 15.0524C10.238 15.0524 11.9046 14.3621 13.1333 13.1333C14.3621 11.9046 15.0524 10.238 15.0524 8.50033C15.0524 6.7626 14.3621 5.09606 13.1333 3.8673C11.9046 2.63855 10.238 1.94824 8.50033 1.94824Z" fill="black"/>
</g>
<defs>
<clipPath id="clip0_1613_943">
<rect width="17" height="17" fill="white"/>
</clipPath>
</defs>
</svg>
